<?xml version="1.0" encoding="utf-8"?>
<!-- Generator: Adobe Illustrator 25.2.1, SVG Export Plug-In . SVG Version: 6.00 Build 0)  -->
<svg version="1.1" id="Layer_1" xmlns="http://www.w3.org/2000/svg" xmlns:xlink="http://www.w3.org/1999/xlink" x="0px" y="0px"
	 viewBox="0 0 610.8 598.7" style="enable-background:new 0 0 610.8 598.7;" xml:space="preserve">
<style type="text/css">
	.st0{opacity:0.2;}
	.st1{opacity:0.31;fill:#0C0C0C;enable-background:new    ;}
	.st2{opacity:0.32;fill:#FFFFFF;enable-background:new    ;}
	.st3{opacity:0.17;fill:#FFFFFF;enable-background:new    ;}
	.st4{opacity:0.35;fill:#FFFFFF;enable-background:new    ;}
	.st5{opacity:0.41;fill:#FFFFFF;enable-background:new    ;}
	.st6{opacity:0.48;fill:#FFFFFF;enable-background:new    ;}
	.st7{opacity:0.47;fill:#FFFFFF;enable-background:new    ;}
	.st8{opacity:0.25;fill:#FFFFFF;enable-background:new    ;}
	.st9{opacity:0.22;fill:#FFFFFF;enable-background:new    ;}
	.st10{opacity:0.12;fill:#FFFFFF;enable-background:new    ;}
	.st11{opacity:0.45;fill:#FFFFFF;enable-background:new    ;}
	.st12{opacity:0.4;fill:#FFFFFF;enable-background:new    ;}
	.st13{opacity:0.23;fill:#FFFFFF;enable-background:new    ;}
	.st14{opacity:0.3;fill:#FFFFFF;enable-background:new    ;}
	.st15{opacity:0.36;fill:#FFFFFF;enable-background:new    ;}
</style>
<g transform="translate(-980.25 -601.56)" class="st0">
	<path class="st1" d="M1328.9,741.4c22,0,41.7,13.3,50.1,33.6c8.4,20.4,3.8,43.8-11.8,59.4c-10.1,10.2-23.9,16-38.3,16V741.4z"/>
	<path class="st2" d="M1093.7,806.9c-0.1-14.4,5.6-28.2,15.8-38.4c21.3-21.4,55.8-21.5,77.2-0.2c5,5,9,10.9,11.8,17.4
		c2.8,6.6,4.2,13.6,4.2,20.7L1093.7,806.9z"/>
	<path class="st3" d="M1204.1,790.9c-0.2-32.9,26.3-59.8,59.2-60s59.8,26.3,60,59.2L1204.1,790.9z"/>
	<path class="st4" d="M1104.9,982.5c0-34.7,20.9-66.1,52.9-79.4c43.8-18.1,94,2.8,112.1,46.7c4.3,10.4,6.5,21.5,6.5,32.7H1104.9z"/>
	<path class="st5" d="M1276.1,1199c-0.6-57.3,45.4-104.2,102.7-104.8c57.3-0.6,104.2,45.4,104.8,102.7c0,0.7,0,1.4,0,2H1276.1z"/>
	<path class="st6" d="M1482,873.3c60.1,0,108.8,48.6,108.8,108.7c0,60.1-48.6,108.8-108.7,108.8c0,0,0,0-0.1,0V873.3z"/>
	<path class="st7" d="M1370.1,869.9c-0.6-60.1,47.6-109.2,107.7-109.8c60.1-0.6,109.2,47.6,109.8,107.7c0,0.7,0,1.4,0,2.1H1370.1z"
		/>
	<path class="st8" d="M1477.8,984.8l-1,105.9l-105.9-1C1371.4,1031.3,1419.3,984.3,1477.8,984.8z"/>
	<path class="st1" d="M980.6,1200v-96.5h96.5C1077.2,1156.8,1034,1200,980.6,1200z"/>
	<g>
		<path class="st9" d="M1371.9,874.3l105.3-0.1l0.1,105.3C1419.1,979.6,1372,932.5,1371.9,874.3L1371.9,874.3z"/>
		<path class="st10" d="M1065.3,706.6h-85v-85C1027.2,621.6,1065.3,659.7,1065.3,706.6L1065.3,706.6z"/>
		<path class="st9" d="M1089.7,1044.5c0,30.1-24.4,54.5-54.5,54.5c0,0,0,0,0,0h-54.5V990h54.5
			C1065.3,990,1089.7,1014.4,1089.7,1044.5C1089.7,1044.5,1089.7,1044.5,1089.7,1044.5z"/>
		<path class="st11" d="M1265.5,916.5c-23.9,0-43.3-19.4-43.3-43.3s19.4-43.3,43.3-43.3c23.9,0,43.3,19.4,43.3,43.3c0,0,0,0,0,0
			C1308.8,897.1,1289.4,916.5,1265.5,916.5C1265.5,916.5,1265.5,916.5,1265.5,916.5z"/>
		<path class="st11" d="M1309.1,1020c-13.1,0-23.7-10.6-23.7-23.7c0-13.1,10.6-23.7,23.7-23.7c13.1,0,23.7,10.6,23.7,23.7
			c0,0,0,0,0,0C1332.7,1009.4,1322.1,1020,1309.1,1020C1309.1,1020,1309.1,1020,1309.1,1020z"/>
		<path class="st11" d="M1497.6,1157c-17.9,0-32.5-14.5-32.5-32.5s14.5-32.5,32.5-32.5s32.5,14.5,32.5,32.5c0,0,0,0,0,0
			C1530.1,1142.4,1515.6,1157,1497.6,1157C1497.6,1157,1497.6,1157,1497.6,1157z"/>
		<path class="st11" d="M1076.8,998.9c-13.2,0-23.9-10.7-23.9-23.9s10.7-23.9,23.9-23.9c13.2,0,23.9,10.7,23.9,23.9c0,0,0,0,0,0
			C1100.7,988.2,1090,998.9,1076.8,998.9z"/>
		<path class="st11" d="M1484.6,738.3c-13.8,0-24.9-11.2-24.9-24.9s11.2-24.9,24.9-24.9c13.8,0,24.9,11.2,24.9,24.9
			S1498.4,738.3,1484.6,738.3L1484.6,738.3z"/>
		<path class="st11" d="M1541.3,771.2c-18.1,0-32.8-14.7-32.8-32.8c0-18.1,14.7-32.8,32.8-32.8c18.1,0,32.8,14.7,32.8,32.8
			S1559.4,771.2,1541.3,771.2L1541.3,771.2z"/>
		<path class="st11" d="M1520.4,675c-6,0-10.8-4.8-10.8-10.8c0-6,4.8-10.8,10.8-10.8c6,0,10.8,4.8,10.8,10.8c0,0,0,0,0,0
			C1531.2,670.1,1526.3,675,1520.4,675z"/>
		<path class="st11" d="M1439,623.2c-6,0-10.8-4.8-10.8-10.8s4.8-10.8,10.8-10.8c6,0,10.8,4.8,10.8,10.8l0,0
			C1449.8,618.4,1445,623.2,1439,623.2z"/>
		<path class="st11" d="M1424.7,678.5c-7.9,0-14.3-6.4-14.4-14.3c0-7.9,6.4-14.3,14.3-14.4s14.3,6.4,14.4,14.3c0,0,0,0,0,0
			C1439,672,1432.6,678.4,1424.7,678.5z"/>
		<path class="st12" d="M1034.3,775.9c-18.2,0-33-14.8-33-33s14.8-33,33-33c18.2,0,33,14.8,33,33l0,0
			C1067.3,761.1,1052.5,775.9,1034.3,775.9z"/>
		<path class="st13" d="M1312.8,852.1c22,0,41.8,13.3,50.1,33.7c11.5,27.8-1.6,59.7-29.3,71.3c-6.6,2.7-13.6,4.1-20.8,4.2V852.1z"/>
		<path class="st2" d="M1533.1,1090.6c14.4,0,28.2,5.8,38.3,16c21.3,21.4,21.2,55.9-0.1,77.2c-5,5-10.9,9-17.5,11.7
			c-6.6,2.7-13.6,4.1-20.8,4.2V1090.6z"/>
		<path class="st3" d="M1295.6,1095c0,58-47,105-105,105s-105-47-105-105H1295.6z"/>
		<path class="st4" d="M1086.1,1090.9c-0.6-57.6,45.7-104.7,103.2-105.3c57.6-0.6,104.7,45.7,105.3,103.2c0,0.7,0,1.4,0,2H1086.1z"
			/>
		<path class="st14" d="M980.2,768.5c60-1.1,109.6,46.7,110.7,106.8c1.1,60-46.7,109.6-106.8,110.7c-1.2,0-2.4,0-3.6,0L980.2,768.5z
			"/>
		<path class="st5" d="M1456.8,724.1c0.1,27-21.6,49-48.6,49.1s-49-21.6-49.1-48.6L1456.8,724.1z"/>
		<path class="st15" d="M1093.7,919.8v-109h109C1202.7,871,1153.9,919.8,1093.7,919.8z"/>
	</g>
	<path class="st1" d="M1227.1,838.8c-11.8,0-21.5-9.6-21.5-21.4s9.6-21.5,21.4-21.5c11.8,0,21.5,9.6,21.5,21.4c0,0,0,0,0,0
		C1248.6,829.2,1239,838.8,1227.1,838.8z"/>
	<path class="st12" d="M1376.9,1019c-20.4,0-37-16.6-37-37s16.6-37,37-37s37,16.6,37,37S1397.3,1019,1376.9,1019L1376.9,1019z"/>
	<path class="st12" d="M1332.7,1094c-20.4,0-37-16.6-37-37s16.6-37,37-37s37,16.6,37,37S1353.2,1094,1332.7,1094L1332.7,1094z"/>
</g>
</svg>
